# xmcd
#
# Track frame offsets:
#	225
#	17552
#	23505
#	41867
#	59365
#	75720
#	88940
#	99907
#	118705
#	132195
#	141955
#	153135
#	162002
#	175070
#
# Disc length: 2524 seconds
#
# Revision: 1
# Processed by: cddbd v1.4PL0 Copyright (c) Steve Scherf et al.
# Submitted via: audiograbber 1.81.03
#
DISCID=a809d90e
DTITLE=Stephan Smith - Now'S The Time
DYEAR=1900
DGENRE=
TTITLE0=Now'S The Time
TTITLE1=It'S Just Gonna Take Everyone
TTITLE2=West Kentucky
TTITLE3=Railroad Boy
TTITLE4=All Together Now
TTITLE5=The Chickadee Boom
TTITLE6=I Need To Know
TTITLE7=Another Man Down
TTITLE8=Ballad Of Abner Louima
TTITLE9=Oh Death
TTITLE10=The Media Mogul
TTITLE11=Hopelessly And Endlessly In Love
TTITLE12=Movin' Down The Line
TTITLE13=Peace On Earth
EXTD=
EXTT0=
EXTT1=
EXTT2=
EXTT3=
EXTT4=
EXTT5=
EXTT6=
EXTT7=
EXTT8=
EXTT9=
EXTT10=
EXTT11=
EXTT12=
EXTT13=
PLAYORDER=
